<?xml version="1.0" encoding="utf-8"?>
<svg viewBox="697.553 162.587 1599.65 1903.847" xmlns="http://www.w3.org/2000/svg">
  <defs>
    <style>
      .cls-1 {
        fill: #fff;
      }

      .cls-2 {
        fill: #522882;
      }

      .cls-3 {
        font-family: Caxo, Caxo;
        font-size: 155.97px;
      }

      .cls-4 {
        fill: #722e9a;
      }

      .cls-5 {
        fill: none;
        stroke: #000;
        stroke-linecap: round;
        stroke-linejoin: round;
        stroke-width: 5.59px;
      }

      .cls-6 {
        fill: #f5bd1f;
      }
    </style>
  </defs>
  <g>
    <g>
      <path class="cls-2" d="m1186.77,1492.96s-152.42,84.43-156.62,76.04c-4.2-8.39,18.68-28.2,18.68-28.2l-141.92,121.49,19.06-.13,260.79-169.2Z"/>
      <polygon class="cls-4" points="2085.21 646.27 1526.22 929.77 1899.58 945.5 1396.17 1253.84 1687.73 1002.13 1362.96 968.05 2085.21 646.27"/>
      <polygon class="cls-5" points="1859 1079.27 1861.43 1077.75 1859.23 1077.69 1859 1079.27"/>
      <polygon class="cls-2" points="2085.21 646.27 1854.41 893.51 2162.05 893.51 2178.55 873.13 1900.63 877.33 2085.21 646.27"/>
      <polygon class="cls-1" points="1781.08 948.49 1688.1 990.09 1729.3 993.85 1622.7 1083.81 1792.8 977.6 1758.02 977.6 1781.08 948.49"/>
      <path class="cls-6" d="m2070.54,657.64l-161.49,203.84-15.41,19.45h272.4l-1237.99,773.06,759.03-640.6,21.94-18.51-28.58-2.61-297.26-27.12,687.37-307.51m39.85-30.97l-773.99,346.27,342.95,31.29-887.26,748.82,1415.84-884.11h-289.46l191.93-242.27h0Z"/>
    </g>
    <g>
      <polygon points="1088 233 1046.84 477.93 1842.18 477.93 2171.5 233 1088 233" style="fill: rgb(255, 255, 255);"/>
      <polygon class="cls-4" points="1842.18 477.93 1658.88 764.48 2046.39 591.12 2134.45 447.06 2171.5 233 1842.18 477.93"/>
    </g>
    <g>
      <polygon points="931.2 1902.08 1245.01 1902.08 1596.8 1326.6 931.2 1902.08" style="fill: rgb(255, 255, 255);"/>
      <polygon class="cls-4" points="1101.45 1635.91 931.2 1902.08 1596.8 1326.6 1101.45 1635.91"/>
    </g>
  </g>
</svg>