<?xml version="1.0" encoding="utf-8"?>
<svg viewBox="351.399 1027.972 2302.447 645.105" xmlns="http://www.w3.org/2000/svg">
  <defs>
    <style>
      .cls-1 {
        fill: #722e9a;
      }

      .cls-2 {
        fill: #000326;
        font-family: Caxo, Caxo;
        font-size: 222.76px;
      }
    </style>
  </defs>
  <polygon points="1038.1 1042.48 1038.1 1122.69 1138.07 1122.69 1138.07 1648.92 1228.36 1648.92 1228.36 1122.69 1481.21 1122.69 1481.21 1042.48 1038.1 1042.48" style="fill: rgb(255, 255, 255);"/>
  <g>
    <text class="cls-2" transform="translate(579.43 1918.76)" style="white-space: pre;"> </text>
    <path class="cls-1" d="m1481.21,1648.92h-90.68v-420.44h90.68v420.44Z"/>
    <path class="cls-1" d="m2337.77,1233.13c0,19.63,6.59,35.78,19.76,48.44l181.74,172.05v118.96h-110.83v-123.61h-90.68v144.54c0,36.95,18.21,55.41,54.64,55.41h182.51c36.68,0,55.03-18.47,55.03-55.41v-144.54c0-20.4-6.59-36.81-19.76-49.21l-181.74-171.28h-90.68v4.65Z"/>
    <g>
      <polygon class="cls-1" points="1909.97 1042.48 1824.34 1042.48 1768.47 1238.91 1909.97 1175.61 1909.97 1042.48"/>
      <path class="cls-1" d="m1828.21,1283.89c-.61,4.78-1.17,9.36-1.68,13.78l45.65-38.53-106.7-9.73-36.48,128.26c-.12.89-.22,1.73-.32,2.58l95.55-80.64,3.97-15.72Z"/>
      <path class="cls-1" d="m1630.59,1463.04v-113.28c0-15.24-1.81-37.2-5.43-65.88l38.44,151.29,61.7-52.07c-.29-2.42-.6-4.24-.94-5.44l-95.32-335.19h-85.64v606.44h87.19v-168.66l-78.43,48.98,78.43-66.2Z"/>
      <polygon class="cls-1" points="1703.82 1593.51 1749.94 1593.51 1806.31 1370.54 1668.96 1456.3 1703.82 1593.51"/>
      <polygon class="cls-1" points="1822.79 1648.92 1909.97 1648.92 1909.97 1305.8 1822.79 1360.24 1822.79 1648.92"/>
      <path class="cls-1" d="m2574.92,1042.48h-390.02v528.55h-122.06v-528.55h-90.68v105.3l55.49-24.83-55.49,70.05v17.33h90.68l-90.68,56.62v326.54c0,36.95,18.34,55.41,55.02,55.41h192.59c37.2,0,55.8-18.47,55.8-55.41v-474.69h263.69v114.31h90.68v-135.63c0-36.68-18.35-55.02-55.03-55.02Z"/>
    </g>
  </g>
  <path d="m815.09,1122.69h160.81v-80.21H424.69c-36.42,0-54.64,18.6-54.64,55.8v134.85c0,19.63,6.59,35.78,19.76,48.44l181.74,172.05v118.96h-110.83v-123.61h-90.68v144.54c0,36.95,18.21,55.41,54.64,55.41h182.51c36.68,0,55.03-18.47,55.03-55.41v-144.54c0-20.4-6.59-36.81-19.76-49.21l-181.74-171.28v-105.79h263.69v526.23h251.49v-80.21h-160.81v-182.9h80.21v-80.21h-80.21v-182.9Z" style="fill: rgb(255, 255, 255);"/>
</svg>